<svg width="375" height="812" viewBox="0 0 375 812" fill="none" xmlns="http://www.w3.org/2000/svg">
<g clip-path="url(#clip0)">
<rect width="375" height="812" fill="white"/>
<path d="M-34.8023 723.615C239.025 811.218 251.017 580.346 368.943 628.747C486.869 677.149 363.583 1121 363.583 1121H4.89616C4.89616 1121 -308.629 636.013 -34.8023 723.615Z" fill="#305895"/>
<path d="M-29 0H405C405 0 529 347 405 169.73C281 -7.54071 -67 326.459 -29 169.73C9.00003 13 -29 0 -29 0Z" fill="#87BAF4"/>
<path d="M63.1543 -53H361.221C361.221 -53 508.502 111.031 383 71C257.498 30.9693 83.0967 267.044 -113 209C-309.097 150.956 63.1543 -53 63.1543 -53Z" fill="#305895"/>
</g>
<defs>
<clipPath id="clip0">
<rect width="375" height="812" fill="white"/>
</clipPath>
</defs>
</svg>
